<svg xmlns="http://www.w3.org/2000/svg" viewBox="0 0 600 700">
  <defs>
    <clipPath id="hexClip">
      <polygon points="300,50 480,150 480,350 300,450 120,350 120,150" />
    </clipPath>
  </defs>

  <polygon points="300,50 480,150 480,350 300,450 120,350 120,150" fill="#36393b" stroke="#7B8964" stroke-width="12" stroke-linejoin="round"/>

  <g clip-path="url(#hexClip)" fill="none" stroke="#7B8964" stroke-width="2" opacity="0.4">
    <path d="M100,100 Q200,150 250,80 T400,120 T500,80" />
    <path d="M80,150 Q180,200 300,150 T520,180" />
    <path d="M100,220 Q200,280 280,210 T450,250 T550,220" />
    <path d="M120,300 Q250,350 350,280 T500,340" />
    <path d="M150,380 Q300,400 400,360 T550,420" />
    <path d="M250,150 Q300,200 350,150 T400,200" />
    <path d="M220,250 Q300,300 380,250" />
  </g>

  <g fill="none" stroke="#7B8964" stroke-width="8" stroke-linejoin="round" stroke-linecap="round">
    <polygon points="300,400 270,330 330,330" />
    <polygon points="270,330 230,250 300,280 370,250 330,330" />
    <polygon points="230,250 300,180 370,250 300,280" />
    <polygon points="230,250 160,230 210,180" />
    <polygon points="370,250 440,230 390,180" />
    <path d="M260,210 L230,120 L200,90 M230,120 L270,80 L250,50 M250,160 L180,140" />
    <path d="M340,210 L370,120 L400,90 M370,120 L330,80 L350,50 M350,160 L420,140" />
  </g>

  <text x="300" y="540" font-family="'Impact', 'Arial Black', sans-serif" font-size="76" font-weight="900" fill="#7B8964" text-anchor="middle" letter-spacing="4">BUCKGRID</text>

  <rect x="235" y="570" width="130" height="45" rx="8" fill="none" stroke="#E57224" stroke-width="5"/>

  <text x="300" y="604" font-family="'Impact', 'Arial Black', sans-serif" font-size="32" font-weight="900" fill="#E57224" text-anchor="middle" letter-spacing="2">PRO</text>
</svg>
